<?xml version="1.0" standalone="no"?>
<!DOCTYPE svg PUBLIC "-//W3C//DTD SVG 20010904//EN"
 "http://www.w3.org/TR/2001/REC-SVG-20010904/DTD/svg10.dtd">
<svg version="1.0" xmlns="http://www.w3.org/2000/svg"
 width="160.000000pt" height="160.000000pt" viewBox="0 0 160.000000 160.000000"
 preserveAspectRatio="xMidYMid meet">
<g transform="translate(0.000000,160.000000) scale(0.100000,-0.100000)"
fill="#000000" stroke="none">
<path d="M580 1557 c-264 -79 -472 -296 -540 -562 -28 -108 -28 -282 0 -390
57 -223 208 -408 415 -511 127 -62 183 -74 350 -74 167 0 223 12 350 75 208
103 350 278 417 515 7 26 12 105 13 190 0 166 -16 236 -86 370 -97 188 -291
342 -495 394 -99 25 -328 21 -424 -7z m435 -27 c239 -75 424 -252 509 -488 30
-83 31 -94 31 -242 0 -148 -1 -159 -31 -243 -42 -117 -85 -186 -173 -279 -411
-435 -1132 -246 -1281 337 -27 106 -27 263 0 371 60 240 245 443 480 528 103
37 159 46 285 41 76 -2 132 -10 180 -25z"/>
<path d="M761 1516 c-1 -16 -4 -17 -13 -8 -19 19 -28 14 -28 -12 0 -28 20 -47
20 -19 1 17 2 17 15 -1 21 -27 30 -13 18 26 -7 21 -11 26 -12 14z"/>
<path d="M833 1495 c0 -22 2 -30 4 -17 2 12 2 30 0 40 -3 9 -5 -1 -4 -23z"/>
<path d="M655 1510 c-3 -5 -3 -21 1 -35 6 -26 37 -35 50 -14 4 8 0 9 -15 4
-12 -3 -21 -2 -21 4 0 5 8 12 18 14 16 4 16 5 0 6 -10 0 -18 5 -18 10 0 5 8
12 18 14 13 4 12 5 -5 6 -12 0 -24 -3 -28 -9z"/>
<path d="M861 1488 c1 -31 1 -31 8 -8 l7 25 8 -22 c8 -25 26 -31 26 -9 0 8 3
21 6 30 3 9 1 16 -5 16 -6 0 -11 -8 -11 -17 -1 -17 -1 -17 -11 0 -16 27 -29
20 -28 -15z"/>
<path d="M936 1494 c-3 -9 -6 -23 -5 -32 0 -11 2 -12 6 -4 2 6 14 12 26 12 21
1 21 1 2 12 -19 11 -19 11 0 19 19 7 19 8 -1 8 -12 1 -25 -6 -28 -15z"/>
<path d="M581 1484 c0 -11 4 -28 8 -39 7 -17 8 -17 13 8 3 16 0 31 -8 38 -11
9 -14 7 -13 -7z"/>
<path d="M618 1482 c-4 -12 0 -26 8 -33 16 -13 18 2 5 35 -7 19 -8 19 -13 -2z"/>
<path d="M1000 1460 c0 -25 4 -30 25 -30 21 0 25 5 25 30 0 25 -4 30 -25 30
-21 0 -25 -5 -25 -30z m40 0 c0 -11 -7 -20 -15 -20 -8 0 -15 9 -15 20 0 11 7
20 15 20 8 0 15 -9 15 -20z"/>
<path d="M521 1470 c-19 -11 -9 -54 13 -58 25 -5 39 12 32 36 -8 24 -28 33
-45 22z m31 -42 c-16 -16 -37 4 -28 28 6 16 8 16 23 1 13 -13 15 -19 5 -29z"/>
<path d="M1072 1445 c-16 -35 -15 -40 4 -25 13 11 16 10 21 -10 6 -22 6 -22
18 6 11 24 10 31 -3 42 -22 17 -27 15 -40 -13z m38 -6 c0 -6 -4 -7 -10 -4 -5
3 -10 11 -10 16 0 6 5 7 10 4 6 -3 10 -11 10 -16z"/>
<path d="M471 1445 c0 -18 28 -61 29 -44 0 8 -7 24 -15 35 -8 10 -14 15 -14 9z"/>
<path d="M735 1428 c-113 -11 -130 -19 -131 -59 -2 -63 -4 -70 -33 -100 -37
-36 -104 -41 -144 -9 -14 11 -30 20 -35 20 -11 0 -88 -84 -103 -112 -9 -17 7
-18 281 -18 l290 0 0 139 0 139 -27 3 c-16 2 -59 1 -98 -3z"/>
<path d="M1137 1411 c-15 -25 -15 -28 2 -38 14 -9 21 -9 30 0 9 9 11 8 6 -5
-11 -29 3 -20 20 12 12 24 13 30 2 30 -7 0 -19 -6 -26 -12 -11 -11 -12 -9 -7
9 10 32 -8 36 -27 4z"/>
<path d="M423 1423 c-15 -5 -18 -24 -4 -20 5 1 17 -7 26 -18 l17 -20 -7 20
c-4 11 -8 26 -8 33 0 13 -4 14 -24 5z"/>
<path d="M378 1381 c-4 -14 -11 -20 -18 -16 -9 6 -9 2 -1 -13 14 -27 37 -42
28 -19 -5 14 -2 16 21 12 25 -5 26 -5 5 6 -12 6 -23 21 -25 33 -3 20 -4 20
-10 -3z"/>
<path d="M1215 1360 c-21 -14 -25 -20 -13 -20 9 0 21 -8 27 -17 8 -16 10 -14
16 9 11 42 3 50 -30 28z m25 -10 c0 -5 -5 -10 -11 -10 -5 0 -7 5 -4 10 3 6 8
10 11 10 2 0 4 -4 4 -10z"/>
<path d="M1090 1260 l0 -110 120 0 c119 0 121 0 110 21 -20 36 -123 133 -178
167 l-52 32 0 -110z"/>
<path d="M310 1335 c-10 -12 -9 -20 5 -41 16 -25 17 -25 36 -8 23 20 26 32 4
14 -21 -17 -31 -5 -14 17 11 15 11 16 -1 6 -20 -18 -35 -16 -20 2 7 9 11 18 8
20 -3 3 -11 -1 -18 -10z"/>
<path d="M1272 1318 c-13 -37 -9 -49 7 -19 8 13 17 18 29 14 15 -6 15 -4 -2
15 -11 12 -20 22 -20 22 -1 0 -7 -14 -14 -32z"/>
<path d="M1305 1280 c-27 -30 -12 -34 15 -5 13 14 19 25 13 25 -5 0 -18 -9
-28 -20z"/>
<path d="M257 1283 c-4 -3 -7 -13 -7 -21 0 -11 8 -13 33 -8 30 5 31 5 13 -9
-16 -12 -17 -15 -4 -15 9 0 19 8 22 17 10 26 -38 56 -57 36z m28 -13 c-3 -5
-11 -10 -16 -10 -6 0 -7 5 -4 10 3 6 11 10 16 10 6 0 7 -4 4 -10z"/>
<path d="M1324 1245 c-10 -25 4 -47 28 -43 17 2 24 11 26 31 3 23 0 27 -23 27
-14 0 -28 -7 -31 -15z m46 -10 c0 -16 -27 -32 -37 -22 -3 4 -3 13 0 22 8 20
37 20 37 0z"/>
<path d="M212 1203 c4 -35 41 -44 57 -14 12 22 2 33 -37 39 -20 2 -23 -1 -20
-25z m28 6 c0 -5 5 -7 11 -3 7 4 10 1 7 -7 -7 -20 -32 -17 -36 4 -2 9 1 17 7
17 6 0 11 -5 11 -11z"/>
<path d="M1380 1189 c-17 -14 -19 -19 -7 -15 14 5 16 1 11 -20 -6 -24 -5 -25
14 -15 27 14 42 37 19 28 -14 -5 -16 -2 -11 18 7 30 6 30 -26 4z"/>
<path d="M172 1158 c-18 -18 -15 -36 9 -48 15 -9 24 -8 35 1 20 16 18 36 -5
49 -24 13 -24 13 -39 -2z m46 -26 c3 -9 -3 -13 -19 -10 -12 1 -24 9 -27 16 -3
9 3 13 19 10 12 -1 24 -9 27 -16z"/>
<path d="M1426 1133 c-3 -4 -6 -16 -7 -27 0 -21 -1 -21 -9 -1 -8 19 -9 19 -9
-2 -1 -17 5 -23 20 -23 16 0 20 5 16 20 -3 11 -1 20 3 20 5 0 11 -8 13 -17 4
-14 5 -13 6 3 1 21 -21 39 -33 27z"/>
<path d="M620 838 c0 -280 0 -286 23 -319 21 -31 49 -51 90 -63 10 -3 17 -15
17 -31 l0 -25 -215 0 c-118 0 -215 -4 -215 -9 0 -14 86 -89 151 -131 197 -127
471 -125 674 4 60 39 145 113 145 127 0 5 -38 9 -84 9 -169 0 -282 41 -323
119 -22 42 -23 53 -23 271 0 220 -1 228 -23 261 -30 45 -66 61 -149 67 l-68 5
0 -285z"/>
<path d="M1090 832 c0 -284 0 -290 23 -323 28 -42 71 -58 159 -58 l67 -1 35
73 c38 79 66 197 66 277 0 74 -28 196 -58 260 l-27 55 -132 3 -133 3 0 -289z"/>
<path d="M224 1056 c-74 -163 -70 -368 12 -534 31 -64 38 -72 57 -66 43 12 69
36 89 80 18 41 19 64 16 267 -3 198 -5 225 -22 250 -22 33 -65 57 -101 57 -22
0 -30 -9 -51 -54z"/>
<path d="M185 1070 c-3 -6 -18 -8 -33 -5 l-27 6 29 -16 c24 -14 30 -15 37 -3
9 14 12 28 5 28 -3 0 -8 -5 -11 -10z"/>
<path d="M1467 1066 c-4 -9 -13 -16 -21 -16 -8 0 -17 -4 -21 -9 -3 -5 10 -9
30 -8 35 2 42 11 26 35 -7 11 -9 11 -14 -2z"/>
<path d="M110 1006 c0 -14 7 -25 18 -28 28 -8 42 2 42 28 0 20 -5 24 -30 24
-25 0 -30 -4 -30 -24z m50 -1 c0 -8 -9 -15 -20 -15 -11 0 -20 7 -20 15 0 8 9
15 20 15 11 0 20 -7 20 -15z"/>
<path d="M1458 1003 c-20 -5 -23 -21 -7 -43 9 -12 10 -11 6 8 -6 26 1 28 20 5
13 -16 14 -16 8 7 -6 24 -6 25 10 5 17 -20 17 -20 13 0 -3 20 -20 26 -50 18z"/>
<path d="M106 945 c18 -14 18 -14 1 -15 -30 0 -13 -25 19 -27 23 -2 25 -1 9 6
-19 7 -18 8 5 21 23 13 24 14 5 21 -11 4 -29 8 -39 8 -20 1 -20 1 0 -14z"/>
<path d="M1460 930 c0 -5 5 -10 11 -10 8 0 7 -5 -1 -15 -7 -9 -11 -18 -8 -20
3 -3 11 1 18 10 9 11 17 12 34 3 21 -11 21 -10 3 10 -14 15 -15 21 -5 25 7 3
-2 6 -19 6 -18 1 -33 -3 -33 -9z"/>
<path d="M80 873 c0 -7 5 -15 11 -19 8 -4 7 -9 -2 -15 -9 -6 -2 -9 21 -9 27 0
32 3 20 11 -11 8 -12 12 -2 16 6 2 12 9 12 14 0 6 -7 6 -18 0 -13 -7 -23 -6
-30 1 -9 9 -12 9 -12 1z"/>
<path d="M1490 861 l-25 -7 24 -7 c26 -6 41 -2 41 14 0 10 -4 10 -40 0z"/>
<path d="M1477 834 c-15 -15 -6 -24 23 -24 17 0 30 5 30 10 0 6 -4 10 -9 10
-5 0 -16 2 -23 5 -8 3 -17 2 -21 -1z"/>
<path d="M81 788 c-1 -25 3 -28 29 -28 26 0 30 3 29 28 l-1 27 -7 -25 c-7 -24
-7 -24 -19 -5 l-11 20 -2 -20 c-1 -17 -2 -16 -9 5 l-8 25 -1 -27z"/>
<path d="M1483 783 c9 -2 25 -2 35 0 9 3 1 5 -18 5 -19 0 -27 -2 -17 -5z"/>
<path d="M1480 750 c13 -8 12 -11 -5 -24 -27 -21 -10 -20 26 1 38 23 37 33 -3
33 -25 0 -29 -3 -18 -10z"/>
<path d="M82 715 c0 -16 2 -24 5 -17 2 6 16 12 29 12 13 0 24 5 24 11 0 7 -9
9 -24 5 -15 -4 -26 -1 -29 7 -3 6 -5 -1 -5 -18z"/>
<path d="M1510 721 c0 -5 5 -13 10 -16 6 -3 10 -2 10 4 0 5 -4 13 -10 16 -5 3
-10 2 -10 -4z"/>
<path d="M134 556 c-8 -21 2 -46 18 -45 10 0 10 2 1 6 -18 7 -16 30 2 37 10 4
19 -2 25 -17 10 -22 10 -21 7 3 -2 29 -43 41 -53 16z"/>
<path d="M1451 534 c21 -23 24 -24 28 -7 2 10 8 21 15 25 6 4 -7 8 -28 8 l-39
0 24 -26z"/>
<path d="M173 498 c-25 -12 -32 -34 -9 -25 20 8 28 -4 15 -20 -14 -16 -1 -16
30 1 l23 13 -22 6 c-20 5 -21 8 -10 21 14 18 5 19 -27 4z"/>
<path d="M1419 470 c18 -16 27 -18 37 -9 8 6 14 16 14 21 0 7 -5 7 -13 0 -8
-7 -18 -7 -27 -2 -27 18 -35 10 -11 -10z"/>
<path d="M1367 437 c-8 -22 16 -50 39 -45 13 2 19 12 19 28 0 20 -6 26 -26 28
-16 2 -29 -3 -32 -11z m48 -17 c0 -22 -29 -18 -33 3 -3 14 1 18 15 15 10 -2
18 -10 18 -18z"/>
<path d="M200 420 c-10 -6 -11 -10 -2 -10 6 0 12 -10 12 -21 0 -18 2 -20 16
-9 8 8 20 22 25 32 8 15 6 18 -13 18 -13 0 -30 -5 -38 -10z m40 -4 c0 -3 -4
-8 -10 -11 -5 -3 -10 -1 -10 4 0 6 5 11 10 11 6 0 10 -2 10 -4z"/>
<path d="M1341 383 c-1 -17 -6 -21 -18 -17 -11 4 -7 -4 11 -21 15 -14 31 -23
34 -20 4 3 0 10 -8 15 -12 8 -10 10 8 10 12 0 22 5 22 10 0 6 -9 10 -19 10
-11 0 -22 8 -24 18 -4 13 -5 12 -6 -5z"/>
<path d="M251 369 c-23 -19 -24 -21 -6 -37 17 -16 17 -16 11 2 -4 12 0 23 11
31 10 8 16 16 13 18 -3 3 -16 -4 -29 -14z"/>
<path d="M294 318 c-10 -12 -13 -18 -5 -13 11 6 13 4 8 -10 -6 -14 -3 -16 13
-12 17 4 19 3 9 -9 -17 -21 5 -17 24 4 24 26 21 35 -7 28 -14 -3 -28 -1 -31 4
-4 6 -1 9 6 8 6 -2 14 3 16 10 7 19 -12 14 -33 -10z"/>
<path d="M1277 325 c-8 -19 8 -28 33 -20 11 4 20 2 20 -4 0 -5 -7 -12 -15 -14
-11 -4 -10 -4 2 -3 10 1 19 10 21 20 4 16 0 18 -29 13 -32 -6 -33 -6 -15 8 16
12 17 15 4 15 -9 0 -18 -7 -21 -15z"/>
<path d="M356 268 c-21 -30 -20 -35 7 -49 18 -9 20 -9 10 2 -18 18 -16 32 3
25 15 -6 15 -4 3 10 -12 15 -11 16 11 9 22 -7 23 -6 11 9 -18 21 -27 20 -45
-6z"/>
<path d="M1224 275 c-10 -25 4 -45 30 -45 24 0 41 23 30 41 -8 14 -24 0 -17
-16 3 -9 -1 -15 -10 -15 -25 0 -32 22 -12 37 17 12 17 13 2 13 -10 0 -20 -7
-23 -15z"/>
<path d="M1170 251 c0 -7 -4 -10 -9 -7 -4 3 -5 -9 -2 -27 6 -26 12 -32 31 -32
33 0 34 41 3 63 -16 10 -23 11 -23 3z m32 -53 c-16 -16 -37 4 -28 28 6 16 8
16 23 1 13 -13 15 -20 5 -29z"/>
<path d="M410 225 c-7 -14 -10 -28 -7 -32 4 -3 7 -1 7 5 0 7 5 12 10 12 6 0
10 -10 10 -22 l0 -22 17 23 c11 17 13 28 6 39 -15 25 -28 24 -43 -3z m40 -5
c0 -5 -4 -10 -10 -10 -5 0 -10 5 -10 10 0 6 5 10 10 10 6 0 10 -4 10 -10z"/>
<path d="M477 204 c-4 -4 0 -18 8 -31 17 -25 8 -31 -15 -10 -12 10 -12 9 -1
-5 7 -10 20 -18 27 -18 16 0 19 26 4 35 -5 3 -10 11 -10 17 0 6 7 5 17 -3 14
-12 16 -12 11 1 -5 17 -30 25 -41 14z"/>
<path d="M1125 201 c3 -5 0 -13 -6 -17 -6 -3 -15 0 -20 7 -14 22 -12 -8 2 -34
l12 -21 9 23 c8 23 9 24 23 5 18 -23 19 -14 3 21 -6 14 -15 25 -20 25 -5 0 -7
-4 -3 -9z"/>
<path d="M573 137 c-1 -30 -1 -30 9 -9 6 12 17 22 25 22 8 0 11 5 8 10 -3 6
-14 10 -23 10 -12 0 -17 -9 -19 -33z"/>
<path d="M1010 134 c0 -30 3 -34 14 -25 7 6 22 8 32 4 16 -6 15 -3 -5 25 -29
42 -41 40 -41 -4z m25 6 c3 -5 1 -10 -4 -10 -6 0 -11 5 -11 10 0 6 2 10 4 10
3 0 8 -4 11 -10z"/>
<path d="M627 143 c-16 -16 -6 -51 16 -56 20 -5 20 -5 5 7 -20 15 -14 27 10
20 12 -4 11 -2 -3 7 -19 12 -19 12 0 20 19 7 19 8 -1 8 -11 1 -24 -2 -27 -6z"/>
<path d="M931 130 c0 -14 4 -32 9 -40 8 -13 10 -12 10 5 0 15 3 16 12 7 19
-19 33 -14 16 6 -9 9 -13 24 -10 32 4 13 3 13 -10 2 -13 -10 -17 -10 -21 0 -3
7 -6 2 -6 -12z"/>
<path d="M690 108 c0 -24 3 -29 10 -18 8 12 10 12 16 -3 3 -9 10 -17 15 -17 6
0 4 10 -2 22 -9 16 -9 23 0 26 6 2 11 9 11 15 0 8 -4 7 -12 -1 -15 -15 -32
-16 -23 -2 3 6 1 10 -4 10 -6 0 -11 -15 -11 -32z"/>
<path d="M865 130 c-8 -14 3 -30 21 -30 8 0 14 -5 14 -11 0 -6 -7 -9 -15 -5
-8 3 -15 1 -15 -5 0 -15 43 -7 48 9 2 7 -5 16 -17 19 -12 3 -21 10 -21 15 0 6
7 7 16 4 8 -3 12 -2 9 4 -8 13 -32 13 -40 0z"/>
<path d="M761 98 c1 -31 1 -31 8 -8 l7 25 8 -22 c11 -34 26 -28 25 10 0 25 -2
28 -8 13 -7 -18 -8 -18 -14 -3 -11 29 -27 19 -26 -15z"/>
<path d="M830 102 c0 -18 5 -32 10 -32 6 0 8 11 4 28 -10 39 -14 40 -14 4z"/>
</g>
</svg>
