<?xml version="1.0" encoding="UTF-8" standalone="no"?>
<svg width="159px" height="160px" viewBox="0 0 159 160" version="1.1" xmlns="http://www.w3.org/2000/svg" xmlns:xlink="http://www.w3.org/1999/xlink" xmlns:sketch="http://www.bohemiancoding.com/sketch/ns">
    <!-- Generator: Sketch 3.1.1 (8761) - http://www.bohemiancoding.com/sketch -->
    <title>itlogo</title>
    <desc>Created with Sketch.</desc>
    <defs>
        <path id="path-1" d="M0,159.848843 L159.890831,159.848843 L159.890831,0 L0,0"></path>
    </defs>
    <g id="Page-1" stroke="none" stroke-width="1" fill="none" fill-rule="evenodd" sketch:type="MSPage">
        <g id="itlogo" sketch:type="MSLayerGroup" transform="translate(-1.000000, 0.000000)">
            <circle id="Oval-1" fill="#FFFFFF" sketch:type="MSShapeGroup" cx="80.625" cy="80.625" r="78.75"></circle>
            <g transform="translate(0.285519, 0.075579)" id="Page-1">
                <g>
                    <g id="Group-4" sketch:type="MSShapeGroup">
                        <path d="M84.3342546,18.0398931 C82.9550602,17.9473079 81.568252,17.8841321 80.1651284,17.8841321 C73.4910459,17.8841321 67.0693081,18.9526743 61.0456659,20.9056776 C61.5438291,22.2672248 61.8298923,23.7289818 61.8298923,25.2626285 C61.8298923,32.2653379 56.1619256,37.9413557 49.1691491,37.9413557 C45.2045092,37.9413557 41.6695079,36.1136148 39.3483716,33.2576335 C35.743758,36.4196906 32.5122229,39.9891227 29.719028,43.9005754 L84.3342546,43.9005754 L84.3342546,18.0398931 L84.3342546,18.0398931 Z M110.124537,25.6122738 L110.124537,43.9005754 L130.611229,43.9005754 C125.24129,36.3804781 118.244163,30.1097364 110.124537,25.6122738 L110.124537,25.6122738 Z M134.377909,49.8489026 L110.124537,49.8489026 L110.124537,100.559454 C110.124537,100.559454 108.872602,113.082421 122.627564,113.082421 L132.600619,113.082421 C138.649278,103.496039 142.163613,92.1472715 142.163613,79.9706829 C142.163613,69.0380037 139.332349,58.7708489 134.377909,49.8489026 L134.377909,49.8489026 Z M84.3342546,100.559454 L84.3342546,62.5265406 C84.3342546,49.8489026 71.6756868,49.8489026 71.6756868,49.8489026 L63.236279,49.8489026 L63.236279,100.559454 C63.236279,113.238182 75.8948468,113.238182 75.8948468,113.238182 L75.8948468,121.611152 L34.1818312,121.611152 C45.5264662,134.166795 61.9256093,142.057234 80.1651284,142.057234 C98.4057352,142.057234 114.803791,134.166795 126.148426,121.611152 L122.627564,121.611152 C122.627564,121.611152 84.3342546,123.817948 84.3342546,100.559454 L84.3342546,100.559454 Z M37.9158803,62.5265406 C37.9158803,51.6167355 28.5464953,50.0961596 25.9327697,49.8848475 C20.990294,58.7980798 18.1666437,69.0521638 18.1666437,79.9706829 C18.1666437,92.1374683 21.6755404,103.476433 27.7133227,113.057368 C37.9093542,111.529168 37.9158803,100.559454 37.9158803,100.559454 L37.9158803,62.5265406 L37.9158803,62.5265406 Z" id="Fill-1" fill="#00A9D3"></path>
                        <path d="M84.3342546,18.0398931 C82.9550602,17.9473079 81.568252,17.8841321 80.1651284,17.8841321 C73.4910459,17.8841321 67.0693081,18.9526743 61.0456659,20.9056776 C61.5438291,22.2672248 61.8298923,23.7289818 61.8298923,25.2626285 C61.8298923,32.2653379 56.1619256,37.9413557 49.1691491,37.9413557 C45.2045092,37.9413557 41.6695079,36.1136148 39.3483716,33.2576335 C35.743758,36.4196906 32.5122229,39.9891227 29.719028,43.9005754 L84.3342546,43.9005754 L84.3342546,18.0398931 L84.3342546,18.0398931 Z M110.124537,25.6122738 L110.124537,43.9005754 L130.611229,43.9005754 C125.24129,36.3804781 118.244163,30.1097364 110.124537,25.6122738 L110.124537,25.6122738 Z M134.377909,49.8489026 L110.124537,49.8489026 L110.124537,100.559454 C110.124537,100.559454 108.872602,113.082421 122.627564,113.082421 L132.600619,113.082421 C138.649278,103.496039 142.163613,92.1472715 142.163613,79.9706829 C142.163613,69.0380037 139.332349,58.7708489 134.377909,49.8489026 L134.377909,49.8489026 Z M84.3342546,100.559454 L84.3342546,62.5265406 C84.3342546,49.8489026 71.6756868,49.8489026 71.6756868,49.8489026 L63.236279,49.8489026 L63.236279,100.559454 C63.236279,113.238182 75.8948468,113.238182 75.8948468,113.238182 L75.8948468,121.611152 L34.1818312,121.611152 C45.5264662,134.166795 61.9256093,142.057234 80.1651284,142.057234 C98.4057352,142.057234 114.803791,134.166795 126.148426,121.611152 L122.627564,121.611152 C122.627564,121.611152 84.3342546,123.817948 84.3342546,100.559454 L84.3342546,100.559454 Z M37.9158803,62.5265406 C37.9158803,51.6167355 28.5464953,50.0961596 25.9327697,49.8848475 C20.990294,58.7980798 18.1666437,69.0521638 18.1666437,79.9706829 C18.1666437,92.1374683 21.6755404,103.476433 27.7133227,113.057368 C37.9093542,111.529168 37.9158803,100.559454 37.9158803,100.559454 L37.9158803,62.5265406 L37.9158803,62.5265406 Z" id="Stroke-3" stroke="#1A1918"></path>
                    </g>
                    <g id="Group-8" sketch:type="MSShapeGroup">
                        <path d="M84.3342546,18.0398931 C82.9550602,17.9473079 81.568252,17.8841321 80.1651284,17.8841321 C73.4910459,17.8841321 67.0693081,18.9526743 61.0456659,20.9056776 C61.5438291,22.2672248 61.8298923,23.7289818 61.8298923,25.2626285 C61.8298923,32.2653379 56.1619256,37.9413557 49.1691491,37.9413557 C45.2045092,37.9413557 41.6695079,36.1136148 39.3483716,33.2576335 C35.743758,36.4196906 32.5122229,39.9891227 29.719028,43.9005754 L84.3342546,43.9005754 L84.3342546,18.0398931 L84.3342546,18.0398931 Z M110.124537,25.6122738 L110.124537,43.9005754 L130.611229,43.9005754 C125.24129,36.3804781 118.244163,30.1097364 110.124537,25.6122738 L110.124537,25.6122738 Z M134.377909,49.8489026 L110.124537,49.8489026 L110.124537,100.559454 C110.124537,100.559454 108.872602,113.082421 122.627564,113.082421 L132.600619,113.082421 C138.649278,103.496039 142.163613,92.1472715 142.163613,79.9706829 C142.163613,69.0380037 139.332349,58.7708489 134.377909,49.8489026 L134.377909,49.8489026 Z M84.3342546,100.559454 L84.3342546,62.5265406 C84.3342546,49.8489026 71.6756868,49.8489026 71.6756868,49.8489026 L63.236279,49.8489026 L63.236279,100.559454 C63.236279,113.238182 75.8948468,113.238182 75.8948468,113.238182 L75.8948468,121.611152 L34.1818312,121.611152 C45.5264662,134.166795 61.9256093,142.057234 80.1651284,142.057234 C98.4057352,142.057234 114.803791,134.166795 126.148426,121.611152 L122.627564,121.611152 C122.627564,121.611152 84.3342546,123.817948 84.3342546,100.559454 L84.3342546,100.559454 Z M37.9158803,62.5265406 C37.9158803,51.6167355 28.5464953,50.0961596 25.9327697,49.8848475 C20.990294,58.7980798 18.1666437,69.0521638 18.1666437,79.9706829 C18.1666437,92.1374683 21.6755404,103.476433 27.7133227,113.057368 C37.9093542,111.529168 37.9158803,100.559454 37.9158803,100.559454 L37.9158803,62.5265406 L37.9158803,62.5265406 Z" id="Fill-5" fill="#00A9D3"></path>
                        <path d="M84.3342546,18.0398931 C82.9550602,17.9473079 81.568252,17.8841321 80.1651284,17.8841321 C73.4910459,17.8841321 67.0693081,18.9526743 61.0456659,20.9056776 C61.5438291,22.2672248 61.8298923,23.7289818 61.8298923,25.2626285 C61.8298923,32.2653379 56.1619256,37.9413557 49.1691491,37.9413557 C45.2045092,37.9413557 41.6695079,36.1136148 39.3483716,33.2576335 C35.743758,36.4196906 32.5122229,39.9891227 29.719028,43.9005754 L84.3342546,43.9005754 L84.3342546,18.0398931 L84.3342546,18.0398931 Z M110.124537,25.6122738 L110.124537,43.9005754 L130.611229,43.9005754 C125.24129,36.3804781 118.244163,30.1097364 110.124537,25.6122738 L110.124537,25.6122738 Z M134.377909,49.8489026 L110.124537,49.8489026 L110.124537,100.559454 C110.124537,100.559454 108.872602,113.082421 122.627564,113.082421 L132.600619,113.082421 C138.649278,103.496039 142.163613,92.1472715 142.163613,79.9706829 C142.163613,69.0380037 139.332349,58.7708489 134.377909,49.8489026 L134.377909,49.8489026 Z M84.3342546,100.559454 L84.3342546,62.5265406 C84.3342546,49.8489026 71.6756868,49.8489026 71.6756868,49.8489026 L63.236279,49.8489026 L63.236279,100.559454 C63.236279,113.238182 75.8948468,113.238182 75.8948468,113.238182 L75.8948468,121.611152 L34.1818312,121.611152 C45.5264662,134.166795 61.9256093,142.057234 80.1651284,142.057234 C98.4057352,142.057234 114.803791,134.166795 126.148426,121.611152 L122.627564,121.611152 C122.627564,121.611152 84.3342546,123.817948 84.3342546,100.559454 L84.3342546,100.559454 Z M37.9158803,62.5265406 C37.9158803,51.6167355 28.5464953,50.0961596 25.9327697,49.8848475 C20.990294,58.7980798 18.1666437,69.0521638 18.1666437,79.9706829 C18.1666437,92.1374683 21.6755404,103.476433 27.7133227,113.057368 C37.9093542,111.529168 37.9158803,100.559454 37.9158803,100.559454 L37.9158803,62.5265406 L37.9158803,62.5265406 Z" id="Stroke-7" stroke="#1A1918" stroke-width="3"></path>
                    </g>
                    <mask id="mask-2" sketch:name="Clip 10" fill="white">
                        <use xlink:href="#path-1"></use>
                    </mask>
                    <g id="Clip-10"></g>
                    <path d="M7.46809762,85.8133442 L8.61561396,85.6761003 L8.85273072,87.6704971 L14.3205618,87.0213063 L14.4848033,88.4068244 L9.01697219,89.0570917 L9.25300331,91.0514885 L8.10548697,91.1876561 L7.46809762,85.8133442" id="Fill-9" fill="#1A1918" sketch:type="MSShapeGroup" mask="url(#mask-2)"></path>
                    <path d="M8.43179325,79.1232665 L8.51228418,82.5598013 L9.92302113,82.5271319 L9.84905751,79.379213 L11.0041868,79.3530828 L11.0781504,82.4998984 L12.7934431,82.4595863 L12.7096899,78.8531112 L13.8985387,78.8248012 L14.0149204,83.7938936 L7.35497822,83.9485756 L7.24294715,79.1504731 L8.43179325,79.1232665" id="Fill-11" fill="#1A1918" sketch:type="MSShapeGroup" mask="url(#mask-2)"></path>
                    <path d="M7.30385615,76.7258299 L7.41262491,75.3686486 L10.1525249,75.5875931 L7.61602486,72.796966 L7.75851312,71.0051789 L10.2732573,73.9515644 L14.4108397,71.3940367 L14.2694397,73.1771048 L11.2054101,74.9961254 L11.8319215,75.7215539 L14.0529905,75.8980335 L13.9453074,77.2552148 L7.30385615,76.7258299" id="Fill-12" fill="#1A1918" sketch:type="MSShapeGroup" mask="url(#mask-2)"></path>
                    <path d="M8.04892592,69.0271167 L8.31758551,67.5991068 L13.3340246,65.9020987 L8.79834634,65.0459386 L9.03763976,63.7758938 L15.5844625,65.0110894 L15.3277665,66.3737336 L10.2177846,68.1197727 L14.8350421,68.9911642 L14.5957487,70.2623123 L8.04892592,69.0271167" id="Fill-13" fill="#1A1918" sketch:type="MSShapeGroup" mask="url(#mask-2)"></path>
                    <path d="M16.9060073,58.2600054 C17.2529811,58.8928346 17.287789,59.6640111 17.0093398,60.5735349 C16.7308905,61.4830586 16.2707946,62.1028362 15.6290573,62.4317642 C14.8252525,62.8903474 13.8528556,62.9448144 12.7107782,62.5940619 C11.546945,62.2367971 10.7714207,61.6464328 10.3852911,60.822969 C10.0372289,60.1901129 10.0035094,59.4189365 10.2819586,58.5094396 C10.5604078,57.5999158 11.0205037,56.9801383 11.662241,56.6511833 C12.442116,56.1882676 13.4134272,56.1349039 14.5783461,56.4921687 C15.7204235,56.8428943 16.4948594,57.4321822 16.9060073,58.2600054 L16.9060073,58.2600054 Z M15.6758287,58.7947994 C15.3843249,58.3678361 14.8828992,58.0454205 14.1704606,57.826476 C13.4612843,57.6097113 12.8652301,57.5955563 12.3833809,57.7840111 C11.9015345,57.9735154 11.5817528,58.3297038 11.4207736,58.8536259 C11.2608828,59.3786513 11.3261451,59.8557221 11.6154696,60.2870718 C11.9058851,60.7173181 12.4073108,61.0419135 13.1197494,61.260858 C13.8310997,61.4786991 14.4282449,61.4917508 14.9100914,61.2967836 C15.3908522,61.1039962 15.7128079,60.7445516 15.8726987,60.2206295 C16.0336778,59.6967075 15.9673299,59.2207131 15.6758287,58.7947994 L15.6758287,58.7947994 Z" id="Fill-14" fill="#1A1918" sketch:type="MSShapeGroup" mask="url(#mask-2)"></path>
                    <path d="M12.188685,53.5468596 L12.7325314,52.2615565 L17.7707238,54.3975569 L19.0574634,51.358572 L20.152772,51.8225911 L18.3232715,56.1479555 L12.188685,53.5468596" id="Fill-15" fill="#1A1918" sketch:type="MSShapeGroup" mask="url(#mask-2)"></path>
                    <path d="M22.6642539,45.8154501 C22.8752668,46.504953 22.7523577,47.2674104 22.2933501,48.1006696 C21.8354309,48.9339288 21.2589532,49.446979 20.5639198,49.6375866 C19.6839748,49.9229733 18.7202791,49.7770103 17.6750069,49.200801 C16.6079815,48.6126165 15.9695038,47.8762892 15.7584909,46.9907428 C15.5474807,46.3001635 15.6714781,45.5387824 16.1293947,44.7055233 C16.587314,43.8711607 17.1637916,43.3592139 17.8588276,43.1675298 C18.7159285,42.8734241 19.6785358,43.0215668 20.7455639,43.608648 C21.7919244,44.1848574 22.4314877,44.9201082 22.6642539,45.8154501 L22.6642539,45.8154501 Z M21.3514077,46.0866818 C21.1523611,45.6095842 20.727073,45.191313 20.0744577,44.8318684 C19.4240165,44.4735002 18.8442765,44.338436 18.3341495,44.4244961 C17.8240198,44.5116325 17.4378902,44.7948395 17.1735812,45.2751933 C16.9092723,45.7555472 16.8766411,46.235901 17.0724254,46.7173313 C17.2692981,47.1987885 17.6934978,47.618136 18.3461131,47.9775806 C18.9987283,48.3370521 19.580645,48.4721163 20.0918603,48.3806204 C20.6019873,48.2891244 20.9892053,48.0026344 21.2535169,47.5222805 C21.5178259,47.0419267 21.550457,46.5637526 21.3514077,46.0866818 L21.3514077,46.0866818 Z" id="Fill-16" fill="#1A1918" sketch:type="MSShapeGroup" mask="url(#mask-2)"></path>
                    <path d="M23.3505886,37.6581538 C22.9176849,37.4805978 22.509802,37.5056515 22.1258463,37.7354948 C21.9126568,37.8640197 21.7255738,38.0426521 21.5635089,38.2703156 C21.2556909,38.7081777 21.165413,39.1830956 21.295935,39.6971953 C21.4253713,40.2113219 21.8202049,40.7014712 22.4804331,41.1698498 C23.1439264,41.6414847 23.722578,41.8222968 24.2131284,41.7133897 C24.7047645,41.605559 25.0876318,41.3572013 25.3617304,40.9694468 C25.6303927,40.589281 25.7424238,40.2004231 25.6967407,39.8039496 C25.6521459,39.4063727 25.4726758,39.0556471 25.1605071,38.7495661 L24.2653361,40.0163548 L23.3636405,39.3769594 L24.9647228,37.1135375 L27.8764692,39.1787361 L27.3467603,39.928115 L26.593,39.5512592 C26.6952414,39.9520923 26.7376622,40.2777641 26.7191713,40.5261219 C26.6898052,40.9563682 26.521213,41.3909741 26.2123066,41.8277597 C25.7021796,42.5488287 25.0365125,42.9627403 24.2131284,43.070571 C23.3745158,43.1958397 22.5217656,42.9507651 21.6537868,42.335347 C20.7771067,41.7133897 20.2441382,40.9727029 20.0570552,40.11439 C19.8699695,39.2549737 20.0570552,38.4282538 20.6204782,37.6320236 C21.1077663,36.9425207 21.6744517,36.5122744 22.3205423,36.3401812 C22.9655446,36.1691645 23.5703001,36.2388629 24.1359025,36.5471236 L23.3505886,37.6581538" id="Fill-17" fill="#1A1918" sketch:type="MSShapeGroup" mask="url(#mask-2)"></path>
                    <path d="M28.1538462,35.6528581 C28.4094566,35.8216951 28.6335187,35.9099349 28.8282093,35.9153708 C29.1827907,35.9262696 29.5417255,35.7247632 29.9071903,35.311928 C30.1247493,35.0646736 30.2759334,34.8392167 30.3574912,34.6376834 C30.5130556,34.253185 30.4510341,33.9373087 30.1704324,33.6889778 C30.0061882,33.5440913 29.8158241,33.5038061 29.5993937,33.5680686 C29.3851131,33.6345108 29.1066612,33.7946288 28.764038,34.0473191 L28.175586,34.4754126 C27.5980173,34.8969399 27.149893,35.1474505 26.8344674,35.2280746 C26.3025845,35.3674983 25.7935458,35.2215353 25.3051721,34.7901857 C24.8603047,34.3958918 24.6351515,33.9046392 24.6308009,33.3153513 C24.6264503,32.7260904 24.9048995,32.1139285 25.4661485,31.4778162 C25.9349458,30.9462785 26.4744416,30.6162202 27.0835451,30.4876953 C27.6926619,30.3591704 28.2713055,30.5192883 28.817326,30.9702289 L27.9276074,31.9766846 C27.6121791,31.7305335 27.2815141,31.6749631 26.9367142,31.8111307 C26.7072077,31.9026266 26.4842312,32.0703603 26.2677794,32.3154349 C26.0274003,32.5899228 25.8892627,32.8546153 25.8533692,33.1127685 C25.8174757,33.3719981 25.8968756,33.5865831 26.0893976,33.7575998 C26.2677794,33.9144347 26.4711766,33.952567 26.7006804,33.8686867 C26.849696,33.8175028 27.1118417,33.6584612 27.487088,33.3926923 L28.459493,32.7042928 C28.8847757,32.4025714 29.2578454,32.2228625 29.577627,32.164036 C30.0736111,32.0747198 30.543502,32.2250423 30.9861981,32.6171564 C31.4408524,33.0190928 31.6627378,33.5288599 31.6540312,34.1453543 C31.6442496,34.7629521 31.3570911,35.3903723 30.7914806,36.0308441 C30.2139388,36.6854709 29.6113519,37.0688659 28.9837468,37.1810561 C28.3572435,37.2932463 27.7840281,37.1200767 27.2652025,36.6604171 L28.1538462,35.6528581" id="Fill-18" fill="#1A1918" sketch:type="MSShapeGroup" mask="url(#mask-2)"></path>
                    <path d="M33.2562179,25.6079192 L30.7392944,27.9454259 L31.6975376,28.9812949 L34.003459,26.840935 L34.7887514,27.6894525 L32.4839318,29.8298123 L33.6499524,31.0900617 L36.2930419,28.638185 L37.1012028,29.5117562 L33.4617918,32.8894645 L28.9337104,27.9977132 L32.4480571,24.7343479 L33.2562179,25.6079192" id="Fill-19" fill="#1A1918" sketch:type="MSShapeGroup" mask="url(#mask-2)"></path>
                    <path d="M34.3058273,23.1713007 L35.39244,22.3532729 L37.0435614,24.5546122 L37.4536075,20.8032774 L38.8882717,19.7249435 L38.3477063,23.5623384 L43.0008519,24.9750631 L41.5726909,26.0490643 L38.1823604,24.9532924 L38.0550926,25.9031013 L39.3929624,27.6883492 L38.3052748,28.5053005 L34.3058273,23.1713007" id="Fill-20" fill="#1A1918" sketch:type="MSShapeGroup" mask="url(#mask-2)"></path>
                    <path d="M44.6965547,16.1457019 L45.2958631,17.1347464 L43.5794955,18.1760513 L46.433614,22.8924533 L45.2415002,23.615702 L42.3884835,18.8993 L40.6731908,19.9395285 L40.0738555,18.950484 L44.6965547,16.1457019" id="Fill-21" fill="#1A1918" sketch:type="MSShapeGroup" mask="url(#mask-2)"></path>
                    <path d="M50.4765679,20.687831 L49.2376692,21.3250197 L46.1943152,15.3897837 L47.4342888,14.7536714 L50.4765679,20.687831" id="Fill-22" fill="#1A1918" sketch:type="MSShapeGroup" mask="url(#mask-2)"></path>
                    <path d="M56.5045597,17.3504078 C56.2391409,18.0213693 55.6681022,18.5398554 54.7914437,18.904736 C53.9136564,19.2707199 53.1435738,19.3110319 52.4811689,19.0256452 C51.6164686,18.69887 50.9540637,17.9832639 50.4950561,16.8798494 C50.0273418,15.7535878 49.987087,14.7787252 50.3743184,13.9552614 C50.6397103,13.2842731 51.210749,12.7658138 52.0874344,12.3998299 C52.9651948,12.0349225 53.7342025,11.9946104 54.3966074,12.2789207 C55.2504513,12.5860781 55.9106795,13.3017111 56.3783669,14.4279727 C56.8373745,15.5313872 56.8787042,16.5051465 56.5045597,17.3504078 L56.5045597,17.3504078 Z M55.3091675,16.7426055 C55.4505701,16.2459169 55.3787939,15.6522695 55.0927371,14.9638969 C54.8077552,14.2776771 54.439012,13.8092985 53.9865344,13.558761 C53.5329819,13.3082504 53.0543843,13.2875561 52.5486187,13.498858 C52.0428262,13.7090835 51.7176163,14.0641686 51.5718604,14.5630369 C51.4261044,15.0608288 51.4957309,15.6555526 51.7817876,16.3439521 C52.0678444,17.0323517 52.4387643,17.5007303 52.8955952,17.7479847 C53.3513244,17.9963155 53.8320987,18.01483 54.3378643,17.8035281 C54.8436299,17.5922263 55.16669,17.239294 55.3091675,16.7426055 L55.3091675,16.7426055 Z" id="Fill-23" fill="#1A1918" sketch:type="MSShapeGroup" mask="url(#mask-2)"></path>
                    <path d="M57.1473746,10.6766379 L58.5396341,10.2681891 L62.3248009,13.9748523 L61.0293627,9.53840111 L62.2682345,9.17567341 L64.1390647,15.5782116 L62.8110034,15.9681728 L58.9377219,12.1994 L60.2570766,16.7164753 L59.0182048,17.0791761 L57.1473746,10.6766379" id="Fill-24" fill="#1A1918" sketch:type="MSShapeGroup" mask="url(#mask-2)"></path>
                    <path d="M69.5862363,8.92516282 L66.2111155,9.55037632 L66.4667259,10.9391506 L69.5590414,10.3673008 L69.7689687,11.5055645 L66.6766531,12.0774143 L66.9877281,13.76791 L70.5314464,13.1121799 L70.7468019,14.2841895 L65.8674174,15.1860975 L64.6578903,8.62562116 L69.3708539,7.75422968 L69.5862363,8.92516282" id="Fill-25" fill="#1A1918" sketch:type="MSShapeGroup" mask="url(#mask-2)"></path>
                    <path d="M71.7333417,7.43289045 L73.1799641,7.31634073 L76.1363053,11.7146866 L75.7654123,7.10721862 L77.0532456,7.00374744 L77.5873078,13.65354 L76.2081083,13.7646269 L73.1788892,9.28896695 L73.5563122,13.9792119 L72.2684789,14.082683 L71.7333417,7.43289045" id="Fill-26" fill="#1A1918" sketch:type="MSShapeGroup" mask="url(#mask-2)"></path>
                    <path d="M83.7479956,13.745036 L82.3557361,13.6851061 L82.640718,7.02008216 L84.0329775,7.07998511 L83.7479956,13.745036" id="Fill-27" fill="#1A1918" sketch:type="MSShapeGroup" mask="url(#mask-2)"></path>
                    <path d="M86.2649191,7.18673938 L87.7061133,7.35990896 L89.732481,12.2593029 L90.281753,7.66924607 L91.5641581,7.82285166 L90.7712339,14.4475905 L89.3974627,14.2820097 L87.3134536,9.29329955 L86.7554481,13.9650569 L85.4730699,13.8114782 L86.2649191,7.18673938" id="Fill-28" fill="#1A1918" sketch:type="MSShapeGroup" mask="url(#mask-2)"></path>
                    <path d="M93.9081308,8.26943273 L98.5199467,9.29547931 L98.2697646,10.425024 L95.0175851,9.70177524 L94.6825667,11.2136385 L97.5355835,11.8486744 L97.2843265,12.9781921 L94.4313097,12.3431832 L93.8265462,15.0684445 L92.4658349,14.7645433 L93.9081308,8.26943273" id="Fill-29" fill="#1A1918" sketch:type="MSShapeGroup" mask="url(#mask-2)"></path>
                    <path d="M103.39608,17.1783147 C102.755414,17.5094224 101.985332,17.5246807 101.083628,17.2240626 C100.183026,16.9223412 99.5750112,16.4463469 99.2639362,15.7960527 C98.8244917,14.9802316 98.7951201,14.0042656 99.1736449,12.8714648 C99.5586996,11.7136102 100.16779,10.9522291 100.998792,10.5862453 C101.639457,10.2540072 102.40954,10.2398523 103.311243,10.5404973 C104.211845,10.8411154 104.81986,11.3171097 105.132037,11.9674038 C105.575808,12.760351 105.604078,13.7352136 105.217948,14.8919918 C104.840525,16.025896 104.23251,16.787277 103.39608,17.1783147 L103.39608,17.1783147 Z M102.893566,15.9332967 C103.325378,15.6522695 103.66037,15.1577607 103.896417,14.4497703 C104.130261,13.745036 104.160707,13.1492089 103.98343,12.6623157 C103.806126,12.1754226 103.458074,11.8453913 102.939249,11.6711184 C102.419321,11.4979219 101.941825,11.5513125 101.503483,11.8312363 C101.067317,12.1111602 100.730149,12.6056959 100.495203,13.3126099 C100.259156,14.0206003 100.231961,14.6175039 100.412517,15.104397 C100.594174,15.5912901 100.945504,15.9213215 101.46433,16.094518 C101.984257,16.2687909 102.459576,16.2143239 102.893566,15.9332967 L102.893566,15.9332967 Z" id="Fill-30" fill="#1A1918" sketch:type="MSShapeGroup" mask="url(#mask-2)"></path>
                    <path d="M112.064984,14.520572 C112.243363,14.7187953 112.367353,14.9475352 112.435877,15.2056884 C112.493545,15.4170172 112.516387,15.633755 112.505504,15.8548793 C112.49462,16.0749002 112.433701,16.3036401 112.324948,16.5422024 C112.192252,16.8297419 111.988855,17.0780997 111.716933,17.2883251 C111.443909,17.4985506 111.114346,17.5845837 110.728216,17.545375 C110.954455,17.7871934 111.077369,18.037704 111.098034,18.298037 C111.117597,18.5594463 111.02951,18.9025562 110.833717,19.3273666 L110.64553,19.734739 C110.517187,20.01251 110.442133,20.2052974 110.418216,20.3142314 C110.377961,20.4863246 110.401905,20.6366471 110.487816,20.7662484 L110.418216,20.9187507 L109.031412,20.2771755 C109.05643,20.1257766 109.079272,20.0048674 109.101011,19.9144747 C109.147796,19.729303 109.209791,19.5473875 109.290274,19.3676787 L109.541531,18.8001884 C109.714481,18.4102272 109.767769,18.1215843 109.69817,17.9331564 C109.629645,17.7447016 109.418616,17.5693523 109.065137,17.4059512 L107.828415,16.833025 L106.730945,19.2129967 L105.4964,18.6411468 L108.290701,12.5850016 L111.182871,13.9236684 C111.592917,14.1229951 111.886605,14.3223218 112.064984,14.520572 L112.064984,14.520572 Z M109.040118,14.2068754 L108.290701,15.8287491 L109.653562,16.4583221 C109.924409,16.5846673 110.141941,16.6456736 110.30726,16.6423905 C110.599847,16.6391343 110.823936,16.4670411 110.979473,16.1282907 C111.149146,15.7623069 111.145894,15.4627652 110.972943,15.2296658 C110.875047,15.0989611 110.696668,14.9736923 110.436704,14.8527831 L109.040118,14.2068754 L109.040118,14.2068754 Z" id="Fill-31" fill="#1A1918" sketch:type="MSShapeGroup" mask="url(#mask-2)"></path>
                    <path d="M119.068633,18.2479295 L120.773042,19.2859782 L117.315262,24.9881416 L116.212364,24.3160768 L118.550882,20.4590911 C118.618332,20.3490806 118.714051,20.1943986 118.836966,19.9961753 C118.960955,19.7968217 119.055573,19.6443463 119.121921,19.5354123 L115.143165,23.666886 L113.990204,22.9654348 L115.822956,17.5301167 C115.75771,17.6379743 115.665242,17.7926294 115.545606,17.9952391 C115.42812,18.1967455 115.334577,18.352504 115.268229,18.4636178 L112.92861,22.3195002 L111.825685,21.6485387 L115.282364,15.9463752 L117.007465,16.9953227 L115.322619,22.1070949 L119.068633,18.2479295" id="Fill-32" fill="#1A1918" sketch:type="MSShapeGroup" mask="url(#mask-2)"></path>
                    <path d="M124.230822,21.8358901 L125.484931,22.8074966 L123.264947,29.5226281 L122.073935,28.6000527 L122.563389,27.2581028 L120.62296,25.7549586 L119.438451,26.5577281 L118.277885,25.6591031 L124.230822,21.8358901 L124.230822,21.8358901 Z M121.631239,25.0730983 L122.977816,26.1155065 L123.919747,23.5242061 L121.631239,25.0730983 L121.631239,25.0730983 Z" id="Fill-33" fill="#1A1918" sketch:type="MSShapeGroup" mask="url(#mask-2)"></path>
                    <path d="M131.838159,28.4170607 L131.050663,29.2655782 L129.582274,27.8985746 L125.835159,31.9374758 L124.812744,30.9876669 L128.560935,26.9487657 L127.092546,25.5806856 L127.87894,24.7332446 L131.838159,28.4170607" id="Fill-34" fill="#1A1918" sketch:type="MSShapeGroup" mask="url(#mask-2)"></path>
                    <path d="M129.05149,35.2193556 L128.09975,34.1998214 L132.966075,29.6435373 L133.917815,30.6630715 L129.05149,35.2193556" id="Fill-35" fill="#1A1918" sketch:type="MSShapeGroup" mask="url(#mask-2)"></path>
                    <path d="M133.963498,40.1928074 C133.245629,40.1198259 132.59193,39.7102738 132.002377,38.9641511 C131.41285,38.2180284 131.165946,37.487137 131.259489,36.771504 C131.338897,35.8478522 131.846839,35.0156694 132.783342,34.2738793 C133.738334,33.5168578 134.663981,33.2140599 135.56023,33.3632791 C136.277024,33.4362606 136.931824,33.8458127 137.521351,34.5919354 C138.110878,35.3380851 138.357782,36.0689495 138.264239,36.7845825 C138.202244,37.6908232 137.6932,38.5219295 136.738209,39.2789511 C135.801705,40.0207143 134.87716,40.3256919 133.963498,40.1928074 L133.963498,40.1928074 Z M134.22236,38.8759113 C134.739036,38.8780911 135.28941,38.6471714 135.873481,38.1842556 C136.454328,37.7235196 136.804557,37.240986 136.923118,36.7366548 C137.040577,36.2312472 136.930723,35.7650483 136.590276,35.334802 C136.250904,34.9045556 135.821268,34.6867145 135.302443,34.6812785 C134.783617,34.676919 134.232168,34.905659 133.64807,35.3685747 C133.063971,35.8314905 132.714818,36.3162039 132.60061,36.8227148 C132.486402,37.3303022 132.598433,37.7986539 132.93888,38.2278238 C133.278252,38.6580702 133.706813,38.8737316 134.22236,38.8759113 L134.22236,38.8759113 Z" id="Fill-36" fill="#1A1918" sketch:type="MSShapeGroup" mask="url(#mask-2)"></path>
                    <path d="M140.554924,39.006616 L141.32283,40.2385554 L138.784166,44.890695 L142.697676,42.440998 L143.38182,43.5389496 L137.732353,47.0735197 L136.999247,45.8982271 L139.573812,41.1458994 L135.588499,43.6391646 L134.904355,42.5422894 L140.554924,39.006616" id="Fill-37" fill="#1A1918" sketch:type="MSShapeGroup" mask="url(#mask-2)"></path>
                    <path d="M140.849687,48.5995379 C140.596253,48.7705547 140.428758,48.9459309 140.34935,49.12346 C140.204669,49.446979 140.252528,49.8565311 140.496181,50.3521163 C140.640835,50.6484018 140.790944,50.8738856 140.946481,51.0263609 C141.24017,51.3161071 141.557775,51.3792932 141.892766,51.2148157 C142.089661,51.1178569 142.198413,50.9577389 142.222357,50.7322821 C142.24192,50.5079017 142.201692,50.1898456 142.099442,49.7759339 L141.927593,49.0679166 C141.760071,48.3729778 141.699178,47.8632107 141.744861,47.5397186 C141.818814,46.9951023 142.148377,46.5790109 142.733577,46.2914444 C143.266538,46.0300351 143.806028,46.0093408 144.350974,46.2293617 C144.896994,46.4493826 145.356002,46.9406353 145.729072,47.704196 C146.041248,48.3403083 146.139144,48.9655218 146.026012,49.5787601 C145.911804,50.1919984 145.544162,50.6658399 144.918734,50.9991274 L144.328132,49.7911653 C144.677285,49.5940184 144.854563,49.3086317 144.861093,48.9372119 C144.863269,48.6910339 144.792568,48.4198291 144.648989,48.1257234 C144.489098,47.7989482 144.296584,47.5691318 144.07142,47.4384272 C143.846283,47.3066191 143.617868,47.2968237 143.386174,47.4111937 C143.17407,47.5157413 143.060964,47.6900411 143.051182,47.9340124 C143.041374,48.0919506 143.088159,48.3958518 143.191483,48.8435362 L143.4558,50.0057503 C143.571083,50.5155174 143.596101,50.929429 143.526501,51.2474851 C143.419899,51.7409175 143.102294,52.1188766 142.57151,52.3792096 C142.026564,52.6460549 141.470762,52.658057 140.906254,52.4140588 C140.339541,52.1700605 139.869677,51.6635765 139.494404,50.8967596 C139.111553,50.1125045 138.986462,49.4088467 139.122436,48.785813 C139.257309,48.1616759 139.636908,47.6976568 140.257984,47.3915758 L140.849687,48.5995379" id="Fill-38" fill="#1A1918" sketch:type="MSShapeGroup" mask="url(#mask-2)"></path>
                    <path d="M149.30106,56.7274479 L148.219875,57.1358967 L147.510712,55.2569731 L142.359406,57.2034423 L141.867775,55.8974449 L147.019082,53.9509758 L146.312068,52.0720253 L147.393253,51.6635765 L149.30106,56.7274479" id="Fill-39" fill="#1A1918" sketch:type="MSShapeGroup" mask="url(#mask-2)"></path>
                    <path d="M149.971069,63.4524018 L149.068291,60.1367493 L147.707579,60.5070927 L148.534229,63.5449742 L147.418271,63.8499518 L146.591622,60.8120703 L144.936147,61.2641142 L145.883534,64.7453206 L144.734927,65.0590172 L143.430782,60.2641978 L149.857963,58.5094396 L151.118602,63.1397816 L149.971069,63.4524018" id="Fill-40" fill="#1A1918" sketch:type="MSShapeGroup" mask="url(#mask-2)"></path>
                    <path d="M151.641781,65.5045218 L151.863666,66.8486246 L149.152052,67.2974123 L152.28567,69.3952803 L152.578284,71.1674497 L149.428327,68.9149265 L146.028188,72.3950296 L145.736676,70.6315524 L148.272088,68.126312 L147.490047,67.5729766 L145.291831,67.9378841 L145.069918,66.5948309 L151.641781,65.5045218" id="Fill-41" fill="#1A1918" sketch:type="MSShapeGroup" mask="url(#mask-2)"></path>
                    <path d="M152.772975,73.1531544 L152.856709,74.6029081 L148.399356,77.4643369 L153.00792,77.1963883 L153.082975,78.4871273 L146.432806,78.8749087 L146.352323,77.4915704 L150.889085,74.5582634 L146.196786,74.831648 L146.122806,73.5398325 L152.772975,73.1531544" id="Fill-42" fill="#1A1918" sketch:type="MSShapeGroup" mask="url(#mask-2)"></path>
                    <path d="M146.363207,81.91497 L146.388225,80.5196565 L153.04925,80.6394624 L153.02313,82.0358792 L146.363207,81.91497" id="Fill-43" fill="#1A1918" sketch:type="MSShapeGroup" mask="url(#mask-2)"></path>
                    <path d="M152.969842,84.3069438 L152.841499,85.6630486 L150.104867,85.4027157 L152.598949,88.2325515 L152.42925,90.0221589 L149.959111,87.0376679 L145.783461,89.5320096 L145.952059,87.7521976 L149.042171,85.9800014 L148.427626,85.2447775 L146.208744,85.034552 L146.337087,83.6784472 L152.969842,84.3069438" id="Fill-44" fill="#1A1918" sketch:type="MSShapeGroup" mask="url(#mask-2)"></path>
                    <path d="M157.617551,79.9706829 C157.617551,122.806046 122.939732,157.533123 80.1640407,157.533123 C37.389437,157.533123 2.71161794,122.806046 2.71161794,79.9706829 C2.71161794,37.1342306 37.389437,2.4071532 80.1640407,2.4071532 C122.939732,2.4071532 157.617551,37.1342306 157.617551,79.9706829 L157.617551,79.9706829 Z" id="Stroke-45" stroke="#1A1918" stroke-width="3" sketch:type="MSShapeGroup" mask="url(#mask-2)"></path>
                    <path d="M13.6788245,98.0956018 C13.5461259,98.3243418 13.3416403,98.4746643 13.0621027,98.5487222 C12.7836535,98.6206003 12.5302198,98.591214 12.2996304,98.4572262 C12.0690382,98.3243418 11.9178487,98.1173725 11.8449734,97.8385251 C11.7710098,97.560781 11.8025526,97.3059109 11.9374279,97.0760676 C12.0733889,96.8462513 12.2800511,96.6959288 12.5585004,96.6218709 C12.8369496,96.5488894 13.0892949,96.5793791 13.3166221,96.7133668 C13.5439492,96.848431 13.6951387,97.0553734 13.768014,97.3331444 C13.8408893,97.6119649 13.8104348,97.8668619 13.6788245,98.0956018" id="Fill-46" fill="#1A1918" sketch:type="MSShapeGroup" mask="url(#mask-2)"></path>
                    <path d="M17.2692981,103.063618 C17.9752094,103.357697 18.482074,103.889261 18.7898921,104.657155 C19.1999516,105.684305 19.1597075,106.574237 18.6680714,107.32254 C18.3885339,107.738631 18.0600509,108.03489 17.6826199,108.208086 L17.1648799,106.911884 C17.4281006,106.712558 17.6097446,106.517591 17.7098121,106.329136 C17.8860198,105.992565 17.8849315,105.599348 17.7054614,105.149511 C17.5216434,104.692031 17.1888071,104.406644 16.704784,104.293351 C16.2207609,104.18116 15.6334079,104.263964 14.9416342,104.541708 C14.2498632,104.818376 13.7865049,105.164742 13.5526505,105.580833 C13.3198844,105.996925 13.2883415,106.418452 13.4591103,106.846546 C13.6353154,107.285484 13.9170296,107.559972 14.3075099,107.672189 C14.5185228,107.734272 14.8002343,107.744067 15.1548238,107.699396 L15.6725637,108.994521 C14.9557745,109.154639 14.2966319,109.090377 13.6940504,108.806066 C13.0914689,108.519603 12.6476899,108.021811 12.3638044,107.312718 C12.0124772,106.43371 12.0211812,105.629864 12.3888199,104.898973 C12.7597236,104.167005 13.4427934,103.601695 14.4380345,103.201938 C15.5148496,102.771692 16.4578776,102.724867 17.2692981,103.063618" id="Fill-47" fill="#1A1918" sketch:type="MSShapeGroup" mask="url(#mask-2)"></path>
                    <path d="M14.4652267,111.777506 L20.3583459,108.665566 L21.0087845,109.900762 L18.7681389,111.08367 L19.956985,113.341656 L22.1976333,112.158748 L22.8469862,113.39284 L16.953867,116.503703 L16.3045141,115.269611 L18.9356427,113.880837 L17.7457056,111.622851 L15.1156653,113.011625 L14.4652267,111.777506" id="Fill-48" fill="#1A1918" sketch:type="MSShapeGroup" mask="url(#mask-2)"></path>
                    <path d="M24.7471853,116.380641 L25.6293044,117.69969 L21.4003531,123.364824 L20.5617432,122.112191 L21.4503895,120.992468 L20.085333,118.9534 L18.7072272,119.339002 L17.8914588,118.119064 L24.7471853,116.380641 L24.7471853,116.380641 Z M21.2578675,118.625548 L22.2052462,120.041556 L23.9183623,117.882682 L21.2578675,118.625548 L21.2578675,118.625548 Z" id="Fill-49" fill="#1A1918" sketch:type="MSShapeGroup" mask="url(#mask-2)"></path>
                    <path d="M27.6708953,120.557863 L28.5551856,121.63512 L24.3284245,125.115223 L26.4233195,127.666211 L25.5042187,128.422157 L22.5250279,124.793911 L27.6708953,120.557863" id="Fill-50" fill="#1A1918" sketch:type="MSShapeGroup" mask="url(#mask-2)"></path>
                    <path d="M34.6353905,128.24678 L36.0580965,129.648633 L31.3864626,134.405347 L30.4651958,133.498003 L33.6260091,130.281489 C33.7163004,130.18889 33.844643,130.059289 34.0110639,129.895888 C34.1763829,129.73141 34.3036507,129.602885 34.3928402,129.512493 L29.5743755,132.620072 L28.6117521,131.672443 L31.642073,126.802463 C31.5528834,126.892855 31.4277924,127.022484 31.2657249,127.192397 C31.1047591,127.361234 30.9785663,127.490862 30.8872001,127.583435 L27.7274617,130.799948 L26.8072752,129.893708 L31.4778288,125.138097 L32.9168463,126.555208 L30.1062342,131.144162 L34.6353905,128.24678" id="Fill-51" fill="#1A1918" sketch:type="MSShapeGroup" mask="url(#mask-2)"></path>
                    <path d="M40.3305676,134.593775 L37.6374417,132.462134 L36.7618311,133.570985 L39.22982,135.52289 L38.5130254,136.43131 L36.0461382,134.479405 L34.9823671,135.827894 L37.8092907,138.064083 L37.0718312,138.99866 L33.1778848,135.918287 L37.3078516,130.684502 L41.0680271,133.659198 L40.3305676,134.593775" id="Fill-52" fill="#1A1918" sketch:type="MSShapeGroup" mask="url(#mask-2)"></path>
                    <path d="M45.9060818,137.066346 C46.0550893,137.28747 46.1475304,137.530365 46.1801803,137.795058 C46.2084501,138.012899 46.2030219,138.23074 46.1616921,138.447505 C46.1203355,138.664269 46.0300711,138.883187 45.8886685,139.104311 C45.7189961,139.371183 45.4840506,139.589024 45.1860087,139.762221 C44.8868919,139.933211 44.5486221,139.973523 44.1711991,139.882027 C44.3626381,140.151079 44.4507259,140.416848 44.4355161,140.677181 C44.4202794,140.93859 44.2865086,141.266442 44.0341498,141.661839 L43.7937761,142.039798 C43.6284302,142.296875 43.5283842,142.478763 43.4892311,142.582234 C43.4272096,142.747815 43.4293862,142.900291 43.4979109,143.039714 L43.4076465,143.181318 L42.120888,142.357854 C42.1654962,142.210815 42.2046493,142.094265 42.2394491,142.008205 C42.3090755,141.830676 42.3960884,141.658583 42.4994128,141.490822 L42.8268262,140.963644 C43.0508884,140.600916 43.1411528,140.322069 43.0987481,140.127102 C43.0552417,139.929955 42.8714075,139.726268 42.5429192,139.517119 L41.3954136,138.781895 L39.9846659,140.989774 L38.839337,140.257806 L42.4276366,134.636267 L45.1120558,136.355073 C45.4916555,136.60779 45.7548707,136.845222 45.9060818,137.066346 L45.9060818,137.066346 Z M42.9508155,136.344174 L41.9892939,137.850601 L43.2542856,138.65991 C43.5044409,138.820028 43.7121915,138.91042 43.8764356,138.930038 C44.1668457,138.964887 44.4126745,138.826567 44.6127934,138.511767 C44.8292506,138.173017 44.8673288,137.875655 44.7281029,137.621861 C44.6486949,137.478078 44.4888041,137.328859 44.2473286,137.17528 L42.9508155,136.344174 L42.9508155,136.344174 Z" id="Fill-53" fill="#1A1918" sketch:type="MSShapeGroup" mask="url(#mask-2)"></path>
                    <path d="M47.1623669,142.877417 C47.0633689,143.167163 47.0350991,143.405698 47.0775038,143.596333 C47.1569118,143.943802 47.4418937,144.240061 47.9324495,144.489495 C48.2272129,144.638714 48.4817215,144.728057 48.6981788,144.757443 C49.1082517,144.810834 49.3975601,144.670307 49.5672325,144.33702 C49.6662304,144.140949 49.6575237,143.947058 49.5400645,143.753168 C49.4215034,143.561484 49.1974412,143.332744 48.8678512,143.063692 L48.3055191,142.601852 C47.7529687,142.147629 47.3983872,141.777312 47.2406731,141.490822 C46.9720027,141.011572 46.9850627,140.48111 47.2787513,139.899465 C47.5473947,139.3679 47.9661744,139.02697 48.5350364,138.873391 C49.1027966,138.721993 49.7641266,138.836362 50.5211492,139.221937 C51.1520059,139.541097 51.6066602,139.981139 51.8851121,140.539937 C52.1624891,141.097605 52.1526806,141.698868 51.8546656,142.340443 L50.6571236,141.732641 C50.8159127,141.364477 50.7865411,141.030086 50.569009,140.729441 C50.4221781,140.531218 50.2035442,140.358021 49.9120323,140.209878 C49.5879242,140.044325 49.2964123,139.977882 49.0375504,140.007296 C48.7786616,140.038889 48.590501,140.169593 48.4741166,140.39941 C48.3664389,140.611815 48.3816487,140.817681 48.5197997,141.019187 C48.6078875,141.150995 48.8276232,141.364477 49.1789262,141.661839 L50.0882616,142.430836 C50.4874243,142.76633 50.7549929,143.083283 50.8920422,143.378492 C51.1041461,143.837048 51.0758763,144.329377 50.8083078,144.857658 C50.5342092,145.399019 50.0980431,145.743205 49.4998096,145.890271 C48.901576,146.035131 48.2217578,145.915325 47.4603819,145.527544 C46.6826944,145.13325 46.1605904,144.646357 45.8940967,144.066864 C45.6287048,143.487399 45.6515463,142.888315 45.964798,142.268538 L47.1623669,142.877417" id="Fill-54" fill="#1A1918" sketch:type="MSShapeGroup" mask="url(#mask-2)"></path>
                    <path d="M61.5547183,143.871897 L61.1805469,144.966593 L59.2835967,144.315222 L57.4976027,149.530492 L56.1793229,149.078448 L57.965317,143.862102 L56.0683936,143.211834 L56.44364,142.117139 L61.5547183,143.871897" id="Fill-55" fill="#1A1918" sketch:type="MSShapeGroup" mask="url(#mask-2)"></path>
                    <path d="M67.0584294,146.459941 L63.720312,145.656068 L63.3907219,147.029611 L66.4482377,147.764835 L66.1773906,148.891124 L63.1209766,148.154797 L62.7196372,149.825674 L66.2219988,150.668756 L65.9435469,151.827687 L61.1185522,150.664396 L62.6772057,144.179081 L67.3368813,145.30206 L67.0584294,146.459941" id="Fill-56" fill="#1A1918" sketch:type="MSShapeGroup" mask="url(#mask-2)"></path>
                    <path d="M68.9716912,145.615783 L70.3182407,145.798775 L69.9495244,148.526216 L72.8732424,146.144065 L74.6505298,146.385856 L71.5745258,148.737518 L73.8967587,153.014955 L72.1270763,152.775343 L70.48141,149.612193 L69.7243605,150.198198 L69.4252437,152.409359 L68.0775924,152.226367 L68.9716912,145.615783" id="Fill-57" fill="#1A1918" sketch:type="MSShapeGroup" mask="url(#mask-2)"></path>
                    <path d="M75.8578534,146.457762 L77.3077542,146.500226 L79.7648597,151.197038 L79.9008072,146.576491 L81.1929939,146.6157 L80.9961266,153.284007 L79.6114989,153.243695 L77.0912969,148.460851 L76.9520978,153.164201 L75.6620879,153.126069 L75.8578534,146.457762" id="Fill-58" fill="#1A1918" sketch:type="MSShapeGroup" mask="url(#mask-2)"></path>
                    <path d="M84.4756467,153.129325 L83.0834141,153.192511 L82.7810188,146.528563 L84.1732783,146.464301 L84.4756467,153.129325" id="Fill-59" fill="#1A1918" sketch:type="MSShapeGroup" mask="url(#mask-2)"></path>
                    <path d="M87.3993647,150.850645 C87.476596,151.148006 87.5853755,151.362591 87.7256764,151.496579 C87.9834634,151.74273 88.3848297,151.83315 88.9319251,151.767784 C89.2604134,151.729652 89.5214519,151.66321 89.7172443,151.568457 C90.0881373,151.386542 90.2534832,151.108798 90.208875,150.736275 C90.1838568,150.518433 90.0696491,150.361572 89.8651769,150.26464 C89.6606779,150.169888 89.3474262,150.103445 88.9243202,150.063133 L88.1999206,149.989075 C87.4885542,149.916094 86.9893186,149.8028 86.6999834,149.652478 C86.2116043,149.400864 85.9288259,148.952103 85.8537713,148.304016 C85.7841449,147.712548 85.9451375,147.197345 86.3334438,146.7562 C86.722825,146.312875 87.3384718,146.042747 88.1803307,145.944711 C88.8840653,145.861934 89.5051404,145.977408 90.0446309,146.288925 C90.5841482,146.600441 90.9071814,147.106952 91.0137843,147.806224 L89.6802679,147.963086 C89.6095666,147.567688 89.4007411,147.305176 89.0537646,147.175574 C88.8220706,147.090591 88.5436187,147.067717 88.2184089,147.105849 C87.8572974,147.148341 87.5777438,147.253992 87.3786998,147.421725 C87.1796559,147.590562 87.0948197,147.802968 87.1252662,148.060017 C87.152461,148.2964 87.2797288,148.459774 87.5059676,148.55127 C87.6517235,148.613353 87.9519152,148.668896 88.4087461,148.721183 L89.5910784,148.858427 C90.109904,148.91833 90.5079918,149.033804 90.784267,149.203717 C91.2139031,149.469486 91.4629835,149.894296 91.5315081,150.482481 C91.6022094,151.085924 91.4281837,151.614205 91.0105059,152.067326 C90.5917531,152.51937 89.9587198,152.796037 89.1114059,152.895149 C88.2456037,152.99644 87.5407673,152.879891 86.9991002,152.54332 C86.4574331,152.207853 86.1463581,151.695906 86.0658752,151.007506 L87.3993647,150.850645" id="Fill-60" fill="#1A1918" sketch:type="MSShapeGroup" mask="url(#mask-2)"></path>
                    <path d="M92.3092225,145.556957 L93.6372838,145.262851 L94.2279125,147.952187 L96.1542073,144.709516 L97.9075782,144.322838 L95.8268208,147.590562 L99.4760132,150.80818 L97.7324507,151.192678 L95.1013195,148.788729 L94.5900988,149.600218 L95.0686964,151.779759 L93.74171,152.071685 L92.3092225,145.556957" id="Fill-61" fill="#1A1918" sketch:type="MSShapeGroup" mask="url(#mask-2)"></path>
                    <path d="M100.871524,143.376312 L102.37689,142.87634 L106.703751,148.46739 L105.274515,148.942308 L104.434806,147.787709 L102.107144,148.561066 L102.111498,149.994511 L100.719265,150.457427 L100.871524,143.376312 L100.871524,143.376312 Z M102.103893,147.343308 L103.718038,146.805231 L102.096288,144.576631 L102.103893,147.343308 L102.103893,147.343308 Z" id="Fill-62" fill="#1A1918" sketch:type="MSShapeGroup" mask="url(#mask-2)"></path>
                    <path d="M111.127379,146.588466 L108.138415,140.62597 L109.383817,139.999653 L110.519364,142.266358 L112.79809,141.121582 L111.662543,138.854877 L112.907945,138.22856 L115.896936,144.191057 L114.650432,144.817373 L113.316916,142.155271 L111.038189,143.301151 L112.372808,145.962149 L111.127379,146.588466" id="Fill-63" fill="#1A1918" sketch:type="MSShapeGroup" mask="url(#mask-2)"></path>
                    <path d="M114.518811,135.053435 L115.517309,134.407527 L116.099231,135.308305 L115.099632,135.955316 L114.518811,135.053435 L114.518811,135.053435 Z M121.924928,139.730628 C121.7846,140.439722 121.313634,141.05078 120.516357,141.568163 C119.717977,142.083366 118.96856,142.261999 118.265927,142.099701 C117.356618,141.931967 116.576727,141.347039 115.928457,140.342763 C115.268229,139.317793 115.053948,138.365804 115.288894,137.486797 C115.429222,136.77878 115.899086,136.166645 116.69639,135.650338 C117.495844,135.134032 118.245262,134.957579 118.94682,135.1188 C119.841994,135.26802 120.620783,135.854024 121.281011,136.877918 C121.929254,137.882194 122.143535,138.833079 121.924928,139.730628 L121.924928,139.730628 Z M116.045943,134.065493 L117.044442,133.418482 L117.626364,134.32039 L116.627865,134.966298 L116.045943,134.065493 L116.045943,134.065493 Z M120.640346,139.347206 C120.691484,138.832003 120.515255,138.262333 120.110637,137.63494 C119.708196,137.011879 119.262248,136.616482 118.771692,136.450928 C118.281137,136.284271 117.806919,136.350713 117.34681,136.648075 C116.886727,136.94654 116.630015,137.353912 116.574551,137.870192 C116.520161,138.387602 116.695288,138.958348 117.098831,139.585741 C117.503449,140.212058 117.951573,140.605276 118.445381,140.767573 C118.938113,140.929871 119.414534,140.862352 119.874617,140.56499 C120.334699,140.267629 120.589235,139.860229 120.640346,139.347206 L120.640346,139.347206 Z" id="Fill-64" fill="#1A1918" sketch:type="MSShapeGroup" mask="url(#mask-2)"></path>
                    <path d="M125.347881,132.055865 C124.976988,131.770479 124.576724,131.687702 124.147061,131.806404 C123.906687,131.87395 123.678272,131.997039 123.462916,132.173491 C123.049592,132.512242 122.837488,132.947951 122.826605,133.478385 C122.815748,134.00777 123.067005,134.586159 123.579301,135.212476 C124.09595,135.843126 124.604994,136.171004 125.107508,136.196058 C125.60892,136.222188 126.044011,136.084944 126.411653,135.782146 C126.771662,135.488041 126.981589,135.141674 127.043611,134.747354 C127.103429,134.35306 127.025096,133.966382 126.805387,133.589499 L125.605668,134.573081 L124.905185,133.718024 L127.047937,131.958906 L129.310352,134.723403 L128.600088,135.306125 L127.973584,134.741918 C127.965953,135.155829 127.92027,135.480425 127.83761,135.715704 C127.695133,136.123076 127.418857,136.496676 127.004431,136.83653 C126.322463,137.397481 125.569767,137.619681 124.748573,137.504208 C123.906687,137.402917 123.148563,136.941077 122.475302,136.117614 C121.793307,135.284354 121.475702,134.429298 121.52246,133.551367 C121.569245,132.674539 121.969509,131.925134 122.721103,131.307536 C123.374802,130.771639 124.03503,130.50587 124.701788,130.512409 C125.370723,130.518948 125.935232,130.745508 126.398593,131.193166 L125.347881,132.055865" id="Fill-65" fill="#1A1918" sketch:type="MSShapeGroup" mask="url(#mask-2)"></path>
                    <path d="M130.262092,130.95463 C130.505718,131.137622 130.726528,131.236734 130.919042,131.253096 C131.272549,131.283585 131.642367,131.10167 132.029571,130.709556 C132.26234,130.474277 132.423333,130.258615 132.516876,130.061468 C132.693078,129.686765 132.647395,129.367606 132.382003,129.104017 C132.225364,128.950438 132.038278,128.900331 131.817494,128.952618 C131.599935,129.007085 131.313879,129.150868 130.95712,129.383941 L130.348004,129.780441 C129.746518,130.168196 129.286409,130.394756 128.966627,130.457942 C128.428239,130.567952 127.927901,130.393679 127.46454,129.9362 C127.041434,129.517928 126.843465,129.014701 126.871735,128.426516 C126.89893,127.838332 127.210005,127.242504 127.806062,126.637985 C128.303148,126.132578 128.860051,125.831959 129.474597,125.738284 C130.091318,125.642428 130.659079,125.835216 131.179006,126.314493 L130.235972,127.271918 C129.934679,127.008329 129.607292,126.934244 129.255963,127.051897 C129.022119,127.130314 128.790425,127.286073 128.559833,127.519172 C128.305324,127.778429 128.151963,128.036555 128.101927,128.291452 C128.052966,128.548502 128.119313,128.767446 128.303148,128.948258 C128.47282,129.114916 128.674041,129.16392 128.907911,129.093118 C129.059095,129.050653 129.329915,128.905767 129.718222,128.660692 L130.727603,128.026759 C131.169224,127.749015 131.551001,127.589974 131.872959,127.549689 C132.373296,127.486503 132.834481,127.662955 133.25541,128.079047 C133.687223,128.506037 133.880839,129.025599 133.838407,129.642094 C133.794901,130.256435 133.472942,130.86857 132.873634,131.476373 C132.26234,132.09833 131.639088,132.447979 131.006055,132.52532 C130.374124,132.602661 129.811765,132.398975 129.319059,131.912082 L130.262092,130.95463" id="Fill-66" fill="#1A1918" sketch:type="MSShapeGroup" mask="url(#mask-2)"></path>
                    <path d="M130.78417,123.747143 L131.636912,122.685144 L133.778589,124.410489 L133.252159,120.673309 L134.376823,119.273636 L134.799929,123.126289 L139.656472,123.34413 L138.537236,124.739444 L134.982661,124.515063 L135.091441,125.468155 L136.828473,126.866725 L135.976806,127.926544 L130.78417,123.747143" id="Fill-67" fill="#1A1918" sketch:type="MSShapeGroup" mask="url(#mask-2)"></path>
                    <path d="M142.940226,117.229158 C143.10447,117.932789 142.930445,118.684375 142.418122,119.484965 C141.905826,120.286631 141.295635,120.758266 140.589723,120.902049 C139.692373,121.127533 138.740633,120.917307 137.735605,120.272476 C136.711014,119.614566 136.121487,118.83685 135.972479,117.938252 C135.807133,117.235671 135.982261,116.484112 136.494556,115.682419 C137.006852,114.881829 137.617071,114.409118 138.322982,114.265335 C139.199641,114.030056 140.150306,114.241358 141.174897,114.899267 C142.179925,115.544099 142.768377,116.320711 142.940226,117.229158 L142.940226,117.229158 Z M141.612165,117.41215 C141.446819,116.923078 141.049806,116.477573 140.423303,116.07456 C139.797874,115.672624 139.229012,115.498351 138.713465,115.550638 C138.198966,115.604002 137.794348,115.859975 137.49851,116.321814 C137.203746,116.783654 137.137398,117.260725 137.300541,117.753081 C137.464785,118.247589 137.860696,118.695274 138.487226,119.097183 C139.113729,119.500196 139.685843,119.672316 140.201417,119.616746 C140.718066,119.560126 141.122684,119.299793 141.419624,118.83903 C141.714387,118.377218 141.779661,117.901196 141.612165,117.41215 L141.612165,117.41215 Z" id="Fill-68" fill="#1A1918" sketch:type="MSShapeGroup" mask="url(#mask-2)"></path>
                    <path d="M139.048456,111.837409 L139.678238,110.592418 L144.557623,113.073708 L146.049928,110.129502 L147.111523,110.668682 L144.98836,114.856776 L139.048456,111.837409" id="Fill-69" fill="#1A1918" sketch:type="MSShapeGroup" mask="url(#mask-2)"></path>
                    <path d="M142.386601,104.717084 L142.964169,103.236787 L150.023282,103.477529 L149.475085,104.881562 L148.050203,104.791142 L147.158307,107.078542 L148.262307,107.991322 L147.727169,109.359402 L142.386601,104.717084 L142.386601,104.717084 Z M146.220702,106.301902 L146.839601,104.714905 L144.09101,104.540605 L146.220702,106.301902 L146.220702,106.301902 Z" id="Fill-70" fill="#1A1918" sketch:type="MSShapeGroup" mask="url(#mask-2)"></path>
                    <path d="M147.844629,96.3844119 C148.070868,96.2493477 148.323226,96.2177547 148.602753,96.2896328 C148.881205,96.3615379 149.088956,96.5129368 149.224903,96.7405734 C149.361952,96.9693134 149.394602,97.2242104 149.321724,97.5030578 C149.251023,97.7829816 149.099839,97.9888476 148.870322,98.1239118 C148.63973,98.258976 148.386296,98.2894926 148.106769,98.2186908 C147.828317,98.1467858 147.622743,97.9964902 147.490047,97.7688267 C147.35625,97.5400867 147.324728,97.2862931 147.396504,97.0074456 C147.468281,96.7285982 147.61839,96.5205525 147.844629,96.3844119" id="Fill-71" fill="#1A1918" sketch:type="MSShapeGroup" mask="url(#mask-2)"></path>
                </g>
            </g>
        </g>
    </g>
</svg>